<?xml version="1.0" encoding="UTF-8"?>
<svg id="Layer_1" xmlns="http://www.w3.org/2000/svg" version="1.1" viewBox="0 0 874.1 699.6">
  <!-- Generator: Adobe Illustrator 30.4.0, SVG Export Plug-In . SVG Version: 2.1.4 Build 226)  -->
  <defs>
    <style>
      .st0 {
        fill: #4799a3;
      }

      .st1 {
        fill: #fff;
      }
    </style>
  </defs>
  <rect class="st0" x="1510.9" y="-23.3" width="800.3" height="722.9"/>
  <path class="st0" d="M251.6,655.8l2.5,1.8c.8.2,1.5.3,2.3.5,1.8.3,3.7.6,5.6.8-11.7-64-23.8-171.2-40.9-179.4-4.4-2.1-9.1-3.9-13.6-5.2v113.4c0,15.2,1.8,27.6,5.5,37,3.7,9.5,9.1,16.9,16.5,22.4,6.5,4.9,14.3,8.3,23.5,10.3l-1.4-1.6h0Z"/>
  <path class="st0" d="M647.4,171.1c-12.8-29.6-30.5-54.1-53-73.6-22.6-19.5-49.5-34-80.9-43.4-31.4-9.4-65.4-14.2-102-14.2s-66.2,3.7-94.2,11c-28.1,7.3-51.5,17.1-70.4,29.3-12.2,8.5-21.8,18-28.8,28.3-7,10.4-10.5,23.8-10.5,40.2v104.6c5.1-7.6,9.8-14.3,13.6-19.1,18.5-23.9,20.4-25.2,22.9-15.5,1.5,5.8,11.1,20.8,21.4,33.2,10.3,12.4,18.7,25.9,18.7,29.9,0,11.9,14.4,24.3,28.2,24.3s32.1-19.2,31.9-43.7c-.1-21.5-17.7-91.2-18.1-72.1-.1,6.7,2.9,21.1,6.7,32,7.9,22.6,9,54.8,2.2,65.1-3.9,5.9-6.2,5.2-15-4.6-5.7-6.4-21-19.5-34.1-29.1-24.1-17.7-45.7-52.2-40.8-65.1,1.3-3.4,15.3-14.1,31.2-23.7,28.5-17.2,29.3-17.4,70.4-15.8,30.4,1.2,45.9,4.1,57.3,10.7,8.6,5,20.6,11.8,26.6,15.1,6,3.3,11,9.9,11,14.6,0,12.8,10.1,18.9,51.9,31.1,52.7,15.4,55.1,18.5,39.2,50.9-14.2,29.1-30.3,39.1-64.4,39.6-10.9.2-23.9,1.9-28.9,3.9-5,2-17,1.5-26.8-.9-22.1-5.6-33.7,3.3-40.7,31.2-2.6,10.5-7.3,24.1-10.4,30.2-7.2,14.5-54.3,38.8-45.6,59.6,5.5,13.2,5.6,146,.1,224.8,6-.5,12-1.2,17.9-2.2,13.4-2.1,23.2-4.1,29.3-5.9v-151.8c22.6,7.9,46.9,11.9,73.2,11.9s66.3-4.9,94.6-14.6c28.4-9.8,52.6-24.5,72.7-44.4,20.1-19.8,35.7-44.4,46.6-73.6,11-29.3,16.5-63.4,16.5-102.4s-6.4-76.1-19.2-105.6h0Z"/>
  <path class="st1" d="M1760.8,648l2.5,1.8c.8.2,1.5.3,2.3.5,1.8.3,3.7.6,5.6.8-11.7-64-23.8-171.2-40.9-179.4-4.4-2.1-9.1-3.9-13.6-5.2v113.4c0,15.2,1.8,27.6,5.5,37,3.7,9.5,9.1,16.9,16.5,22.4,6.5,4.9,14.3,8.3,23.5,10.3l-1.4-1.6h0Z"/>
  <path class="st1" d="M2156.6,163.3c-12.8-29.6-30.5-54.1-53-73.6-22.6-19.5-49.5-34-80.9-43.4-31.4-9.4-65.4-14.2-102-14.2s-66.2,3.7-94.2,11c-28.1,7.3-51.5,17.1-70.4,29.3-12.2,8.5-21.8,18-28.8,28.3-7,10.4-10.5,23.8-10.5,40.2v104.6c5.1-7.6,9.8-14.3,13.6-19.1,18.5-23.9,20.4-25.2,22.9-15.5,1.5,5.8,11.1,20.8,21.4,33.2,10.3,12.4,18.7,25.9,18.7,29.9,0,11.9,14.4,24.3,28.2,24.3s32.1-19.2,31.9-43.7c-.1-21.5-17.7-91.2-18.1-72.1-.1,6.7,2.9,21.1,6.7,32,7.9,22.6,9,54.8,2.2,65.1-3.9,5.9-6.2,5.2-15-4.6-5.7-6.4-21-19.5-34.1-29.1-24.1-17.7-45.7-52.2-40.8-65.1,1.3-3.4,15.3-14.1,31.2-23.7,28.5-17.2,29.3-17.4,70.4-15.8,30.4,1.2,45.9,4.1,57.3,10.7,8.6,5,20.6,11.8,26.6,15.1,6,3.3,11,9.9,11,14.6,0,12.8,10.1,18.9,51.9,31.1,52.7,15.4,55.1,18.5,39.2,50.9-14.2,29.1-30.3,39.1-64.4,39.6-10.9.2-23.9,1.9-28.9,3.9-5,2-17,1.5-26.8-.9-22.1-5.6-33.7,3.3-40.7,31.2-2.6,10.5-7.3,24.1-10.4,30.2-7.2,14.5-54.3,38.8-45.6,59.6,5.5,13.2,5.6,146,.1,224.8,6-.5,12-1.2,17.9-2.2,13.4-2.1,23.2-4.1,29.3-5.9v-151.8c22.6,7.9,46.9,11.9,73.2,11.9s66.3-4.9,94.6-14.6c28.4-9.8,52.6-24.5,72.7-44.4,20.1-19.8,35.7-44.4,46.6-73.6,11-29.3,16.5-63.4,16.5-102.4s-6.4-76.1-19.2-105.6h0Z"/>
</svg>