<?xml version="1.0" encoding="UTF-8"?>
<svg id="Layer_1" data-name="Layer 1" xmlns="http://www.w3.org/2000/svg" viewBox="0 0 5246.85 965.9">
  <defs>
    <style>
      .cls-1, .cls-2 {
        fill: #4799a3;
      }

      .cls-3, .cls-2 {
        isolation: isolate;
      }

      .cls-2 {
        font-family: BalooBhai-Regular, 'Baloo Bhai';
        font-size: 914.5px;
      }
    </style>
  </defs>
  <text class="cls-2" transform="translate(0 734.8)"><tspan x="0" y="0">Pu</tspan></text>
  <g class="cls-3">
    <text class="cls-2" transform="translate(1593.47 781.77)"><tspan x="0" y="0">Manager</tspan></text>
  </g>
  <g>
    <path class="cls-1" d="M1164.4,909.52l2.53,1.83c.78.16,1.54.32,2.33.46,1.83.31,3.71.59,5.61.85-11.66-64.02-23.82-171.17-40.94-179.44-4.42-2.14-9.06-3.86-13.6-5.25v113.42c0,15.23,1.83,27.58,5.49,37.04,3.66,9.45,9.14,16.92,16.46,22.41,6.5,4.87,14.33,8.3,23.48,10.29l-1.36-1.6Z"/>
    <path class="cls-1" d="M1560.21,424.84c-12.8-29.56-30.49-54.1-53.04-73.62-22.56-19.5-49.54-33.98-80.93-43.44-31.41-9.44-65.39-14.17-101.97-14.17s-66.16,3.66-94.19,10.97c-28.05,7.32-51.53,17.08-70.42,29.26-12.2,8.54-21.8,17.99-28.81,28.35-7.02,10.37-10.52,23.78-10.52,40.24v104.64c5.11-7.58,9.84-14.26,13.6-19.13,18.47-23.91,20.41-25.23,22.88-15.54,1.49,5.83,11.09,20.76,21.36,33.2,10.27,12.43,18.67,25.88,18.67,29.87,0,11.87,14.39,24.28,28.15,24.28,18.03,0,32.05-19.2,31.9-43.66-.14-21.47-17.67-91.25-18.11-72.07-.15,6.72,2.85,21.11,6.66,31.99,7.93,22.59,9,54.84,2.16,65.13-3.95,5.94-6.18,5.25-14.98-4.65-5.68-6.4-21.04-19.49-34.13-29.11-24.07-17.67-45.7-52.23-40.77-65.13,1.31-3.43,15.34-14.09,31.17-23.68,28.46-17.24,29.26-17.42,70.44-15.77,30.43,1.22,45.86,4.11,57.28,10.7,8.59,4.96,20.57,11.75,26.61,15.09,6.05,3.34,10.99,9.88,10.99,14.55,0,12.83,10.15,18.92,51.88,31.11,52.7,15.4,55.07,18.47,39.25,50.87-14.21,29.13-30.34,39.06-64.38,39.62-10.9.18-23.91,1.94-28.92,3.9-5,1.97-17.04,1.55-26.75-.93-22.07-5.63-33.69,3.26-40.73,31.17-2.64,10.47-7.32,24.08-10.4,30.24-7.24,14.52-54.26,38.84-45.62,59.63,5.5,13.24,5.63,146,.12,224.78,6.02-.53,11.98-1.25,17.88-2.18,13.4-2.14,23.16-4.12,29.26-5.94v-151.81c22.55,7.92,46.94,11.89,73.16,11.89,34.75,0,66.3-4.89,94.65-14.63,28.35-9.75,52.58-24.53,72.7-44.35,20.12-19.8,35.67-44.35,46.64-73.62,10.97-29.26,16.46-63.4,16.46-102.42s-6.4-76.05-19.2-105.62Z"/>
  </g>
</svg>